<?xml version="1.0" encoding="UTF-8"?>
<svg width="512px" height="512px" viewBox="0 0 512 512" version="1.1" xmlns="http://www.w3.org/2000/svg" xmlns:xlink="http://www.w3.org/1999/xlink">
    <title>Icon cv</title>
    <g id="Page-1" stroke="none" stroke-width="1" fill="none" fill-rule="evenodd">
        <g id="Icon-cv">
            <path d="M128.19426,0 L383.80574,7.25467311e-15 C428.381677,-4.215174e-15 444.545989,4.64128056 460.842285,13.3566352 C477.138581,22.0719898 489.92801,34.8614185 498.643365,51.1577148 C507.358719,67.4540111 512,83.618323 512,128.19426 L512,383.80574 C512,428.381677 507.358719,444.545989 498.643365,460.842285 C489.92801,477.138581 477.138581,489.92801 460.842285,498.643365 C444.545989,507.358719 428.381677,512 383.80574,512 L128.19426,512 C83.618323,512 67.4540111,507.358719 51.1577148,498.643365 C34.8614185,489.92801 22.0719898,477.138581 13.3566352,460.842285 C4.64128056,444.545989 0,428.381677 0,383.80574 L0,128.19426 C0,83.618323 4.64128056,67.4540111 13.3566352,51.1577148 C22.0719898,34.8614185 34.8614185,22.0719898 51.1577148,13.3566352 C67.4540111,4.64128056 83.618323,0 128.19426,0 Z" id="Rectangle" fill="#232323" />
            <polygon id="Path" fill="#FFFFFF" fill-rule="nonzero" points="247.51 192.06 288.842456 192.06 317.682482 284.183766 346.101178 192.06 386.232844 192.06 338.727907 320.06 295.878664 320.06" />
            <path d="M214.241083,267.290955 L247.790127,277.40051 C245.548089,286.796688 242.001592,294.664204 237.130255,300.962293 C232.279299,307.280764 226.286943,312.029809 219.092038,315.229809 C211.917516,318.429809 202.765924,320.04 191.678025,320.04 C178.185032,320.04 167.199045,318.083312 158.638535,314.190318 C150.098408,310.276943 142.760828,303.387771 136.56465,293.543185 C130.368471,283.718981 127.25,271.082038 127.25,255.75465 C127.25,235.290955 132.692038,219.555924 143.596497,208.529172 C154.521338,197.543185 169.950637,192.04 189.884395,192.04 C205.476752,192.04 217.767197,195.178854 226.694586,201.497325 C235.601592,207.815796 242.266561,217.497325 246.58758,230.582675 L212.855096,238.042548 C211.67293,234.292229 210.429618,231.561019 209.145541,229.828535 C206.985032,226.913885 204.355732,224.671847 201.278025,223.10242 C198.159554,221.512611 194.714968,220.738089 190.862739,220.738089 C182.159554,220.738089 175.494586,224.223439 170.888217,231.173758 C167.402866,236.330446 165.65,244.46293 165.65,255.510064 C165.65,269.227261 167.728981,278.603057 171.907325,283.698599 C176.085669,288.773758 181.93535,291.301146 189.497134,291.301146 C196.814331,291.301146 202.35828,289.26293 206.108599,285.12535 C209.838535,281.069299 212.549363,275.097325 214.241083,267.290955 L214.241083,267.290955 Z" id="Path" fill="#FFFFFF" fill-rule="nonzero" />
        </g>
    </g>
</svg>
